# xmcd
#
# Track frame offsets: 
#        150
#        16485
#        29091
#        42814
#        55693
#        68301
#        81584
#        95470
#        108770
#        121846
#        134933
#        147872
#        161250
#        173979
#        187201
#        200579
#        215225
#        228404
#        242725
#        257536
#        270069
#        284340
#
# Disc length: 3946 seconds
#
# Revision: 0
# Processed by: cddbd v1.5.2PL0 Copyright (c) Steve Scherf et al.
# Submitted via: ExactAudioCopyFreeDBPlugin 1.0
#
DISCID=3f0f6816
DTITLE=Mary Johnson - Complete Recorded Works (1929-1936)
DYEAR=1994
DGENRE=Blues
TTITLE0=Muddy Creek Blues
TTITLE1=Room Rent Blues
TTITLE2=Black Men Blues
TTITLE3=Western Union Blues
TTITLE4=Mean Black Man Blues
TTITLE5=Dream Daddy Blues
TTITLE6=Barrel House Flat Blues
TTITLE7=Key to the Mountain Blues
TTITLE8=Three Months Ago Blues
TTITLE9=Dawn of Day Blues
TTITLE10=Friendless Gal Blues
TTITLE11=Death Cell Blues
TTITLE12=Morning Sun Blues
TTITLE13=No Good Town Blues
TTITLE14=Rattlesnake Blues
TTITLE15=Mary Johnson Blues
TTITLE16=Those Black Man Blues
TTITLE17=Peepin' at the Risin' Sun
TTITLE18=Deceitful Woman Blues
TTITLE19=Black Gal Blues
TTITLE20=Delmar Avenue
TTITLE21=I Just Can't Take It
EXTD=
EXTT0=
EXTT1=
EXTT2=
EXTT3=
EXTT4=
EXTT5=
EXTT6=
EXTT7=
EXTT8=
EXTT9=
EXTT10=
EXTT11=
EXTT12=
EXTT13=
EXTT14=
EXTT15=
EXTT16=
EXTT17=
EXTT18=
EXTT19=
EXTT20=
EXTT21=
PLAYORDER=
